<?xml version="1.0" encoding="UTF-8"?>
<svg id="Layer_2" data-name="Layer 2" xmlns="http://www.w3.org/2000/svg" viewBox="0 0 392.17 174.03">
  <defs>
    <style>
      .cls-1 {
        fill: #fff;
      }
    </style>
  </defs>
  <g id="Layer_1-2" data-name="Layer 1">
    <path class="cls-1" d="M130.01,89.11c-3.29,4.45-6.58,8.9-9.87,13.35-8.84,11.92-17.69,23.84-26.53,35.77-8.44,11.39-16.87,22.79-25.27,34.21-.76,1.04-1.53,1.48-2.88,1.48-21.06-.05-42.12-.06-63.19,0-1.91,0-2.27-.58-2.27-2.36C.07,144.07.09,116.58,0,89.09c0-2.4,1.52-3.73,2.68-5.31,9.15-12.52,18.37-24.99,27.6-37.45,7.22-9.75,14.51-19.45,21.75-29.19,3.8-5.11,7.58-10.23,11.29-15.39.86-1.19,1.76-1.73,3.27-1.72,20.69.05,41.39.06,62.08-.02,1.97,0,2.23.68,2.23,2.41-.05,27.12-.04,54.24-.04,81.36v2.36c.14.06.28.12.42.17,1.85-2.47,3.72-4.93,5.56-7.41,10.49-14.16,20.98-28.32,31.45-42.49,8.61-11.64,17.21-23.28,25.75-34.97.76-1.04,1.5-1.4,2.72-1.4,20.99.02,41.98.05,62.97-.04,2.13,0,1.95,1.05,1.95,2.45-.02,26.9-.01,53.8-.01,80.7v2.58c.16.06.31.13.47.19,1.87-2.56,3.72-5.12,5.61-7.66,8.46-11.39,16.95-22.75,25.39-34.16,10.57-14.28,21.11-28.57,31.61-42.91.62-.84,1.15-1.15,2.13-1.15,21.14.02,42.27.04,63.41-.03,2.1,0,1.76,1.19,1.76,2.41,0,26.16-.15,52.32.13,78.48.05,5.07-1.46,8.91-4.39,12.78-9.49,12.54-18.76,25.24-28.14,37.86-8.89,11.97-18.15,23.68-26.54,35.98-3.48,5.11-7.16,6.62-13.09,6.5-18.76-.39-37.54-.18-56.31-.09-2.09.01-2.51-.62-2.5-2.58.06-26.68.04-53.36.04-80.03v-2.83c-2.64,2.63-4.37,5.56-6.38,8.25-9.84,13.18-19.63,26.4-29.42,39.62-8.97,12.1-17.94,24.2-26.82,36.36-.77,1.05-1.51,1.17-2.57,1.17-21.14,0-42.27-.03-63.41.04-1.92,0-2.26-.6-2.26-2.37.05-26.75.04-53.5.04-80.26v-1.99c-.14-.07-.28-.13-.41-.2"/>
  </g>
</svg>