<?xml version="1.0" encoding="UTF-8"?>
<svg id="Layer_2" data-name="Layer 2" xmlns="http://www.w3.org/2000/svg" xmlns:xlink="http://www.w3.org/1999/xlink" viewBox="0 0 444.32 442.77">
  <defs>
    <style>
      .cls-1 {
        fill: url(#linear-gradient);
      }
    </style>
    <linearGradient id="linear-gradient" x1="0" y1="221.38" x2="444.32" y2="221.38" gradientUnits="userSpaceOnUse">
      <stop offset="0" stop-color="#01d2a1"/>
      <stop offset=".74" stop-color="#03b9e7"/>
    </linearGradient>
  </defs>
  <g id="Layer_1-2" data-name="Layer 1">
    <g>
      <g>
        <path d="M184.2,316.68c-19.6-.96-36.95-11.6-44.45-29.95-.65-1.59-3.52-9.56-3.52-10.46V126.09c16.64.96,31.85,8.41,40.77,22.65,2.01,3.21,7.19,14.51,7.19,17.76v150.17Z"/>
        <path d="M240.16,302.71c-17.27,0-34.83-10.43-42.79-25.62-1.36-2.6-5.17-12.38-5.17-14.79v-122.23c17.07-1.54,33.12,4.16,42.39,19.04,1.51,2.42,5.58,11.06,5.58,13.39v130.22Z"/>
        <ellipse cx="277.97" cy="221.4" rx="30.12" ry="30.07"/>
      </g>
      <path class="cls-1" d="M380.23,66.24c-25.1-25.54-51.96-42.34-85.94-53.88-43.82-14.89-87.18-16.47-131.9-3.99-37.32,10.41-66.19,27.26-93.93,53.88C30.45,98.73,4.12,150.94.51,203.94c-.68,10.08-.68,24.85,0,34.92,4.58,67.32,42.96,128.33,97.93,165.64,30.52,20.72,57.1,31.06,93.93,35.92,38.58,5.1,68.33,2.07,104.92-10.97,36.52-13.02,62.13-30.75,87.94-58.87,80.54-87.77,78.64-219.22-5-304.34ZM383.23,283.77c-15.41,40.44-48.05,74.4-86.94,92.79-31.84,15.07-67.85,20.61-102.92,14.97-33.79-5.43-68.74-23.97-92.93-47.89-54.05-53.46-65.88-140.03-28.98-206.55,19.31-34.83,53.65-63.27,90.93-76.84,44.05-16.02,89.28-14.52,131.9,4.99,37.45,17.15,65.13,45.43,83.94,81.82,0,3.22,8.12,21.11,9.71,26.73,10.01,35.44,8.4,75.55-4.71,109.98Z"/>
    </g>
  </g>
</svg>