<?xml version="1.0" encoding="UTF-8"?>
<svg id="Layer_2" data-name="Layer 2" xmlns="http://www.w3.org/2000/svg" xmlns:xlink="http://www.w3.org/1999/xlink" viewBox="0 0 1360.73 442.77">
  <defs>
    <style>
      .cls-1 {
        fill: url(#linear-gradient);
      }
    </style>
    <linearGradient id="linear-gradient" x1="0" y1="221.38" x2="444.32" y2="221.38" gradientUnits="userSpaceOnUse">
      <stop offset="0" stop-color="#01d2a1"/>
      <stop offset=".74" stop-color="#03b9e7"/>
    </linearGradient>
  </defs>
  <g id="Layer_1-2" data-name="Layer 1">
    <g>
      <g>
        <g>
          <path d="M184.2,316.68c-19.6-.96-36.95-11.6-44.45-29.95-.65-1.59-3.52-9.56-3.52-10.46V126.09c16.64.96,31.85,8.41,40.77,22.65,2.01,3.21,7.19,14.51,7.19,17.76v150.17Z"/>
          <path d="M240.16,302.71c-17.27,0-34.83-10.43-42.79-25.62-1.36-2.6-5.17-12.38-5.17-14.79v-122.23c17.07-1.54,33.12,4.16,42.39,19.04,1.51,2.42,5.58,11.06,5.58,13.39v130.22Z"/>
          <ellipse cx="277.97" cy="221.4" rx="30.12" ry="30.07"/>
        </g>
        <path class="cls-1" d="M380.23,66.24c-25.1-25.54-51.96-42.34-85.94-53.88-43.82-14.89-87.18-16.47-131.9-3.99-37.32,10.41-66.19,27.26-93.93,53.88C30.45,98.73,4.12,150.94.51,203.94c-.68,10.08-.68,24.85,0,34.92,4.58,67.32,42.96,128.33,97.93,165.64,30.52,20.72,57.1,31.06,93.93,35.92,38.58,5.1,68.33,2.07,104.92-10.97,36.52-13.02,62.13-30.75,87.94-58.87,80.54-87.77,78.64-219.22-5-304.34ZM383.23,283.77c-15.41,40.44-48.05,74.4-86.94,92.79-31.84,15.07-67.85,20.61-102.92,14.97-33.79-5.43-68.74-23.97-92.93-47.89-54.05-53.46-65.88-140.03-28.98-206.55,19.31-34.83,53.65-63.27,90.93-76.84,44.05-16.02,89.28-14.52,131.9,4.99,37.45,17.15,65.13,45.43,83.94,81.82,0,3.22,8.12,21.11,9.71,26.73,10.01,35.44,8.4,75.55-4.71,109.98Z"/>
      </g>
      <g>
        <path d="M527.47,211.85l21.46-116.77c2.37-2.35,21.76-.36,26.38-.84l23.1,85.68c16.13-29.03,33.75-57.6,51.47-85.81h24.98c.43,0,1.67,1.56,1.45,2.39l-21.43,115.35h-23.48l11.98-70.84-42.16,70.63-17.32.28-18.95-72.92-12.49,72.85h-24.98Z"/>
        <path d="M775.29,348.56l21.47-116.76c1.33-1.57,22.19-1.63,24.01,0l38.45,77.84,14.5-78.83h21.98l-19.62,117.61c-4.66-.5-21.66,1.56-24.36-.85l-38.45-76.85-13,77.83h-24.98Z"/>
        <polygon points="1072.06 231.81 1063.07 279.71 1111.54 279.71 1121.53 231.81 1145.01 231.81 1125.03 348.56 1100.04 348.56 1109.04 298.66 1060.07 298.66 1051.08 348.56 1027.1 348.56 1047.08 231.81 1072.06 231.81"/>
        <path d="M649.38,348.56c19.38-39.36,41.12-77.63,61.9-116.3,3.22-3.32,21.18-.45,26.57-1.51l22.45,117.81h-24.98l-4.14-21.82-45.17.02c-2.74.94-8.87,18.8-12.15,21.79h-24.48ZM728.32,307.64l-8.49-46.91-24.48,46.91h32.98Z"/>
        <path d="M1250.93,348.56h-24.98l-4.14-21.82-45.17.02c-2.19.75-9.55,18.52-11.65,21.79h-25.98l63.38-116.81c1.15-1.14,2.6-.84,4.01-.99,4.1-.41,17.35-.61,21.04.06,1.61.29,2.09.81,2.75,2.24l20.73,115.5ZM1218.96,307.64l-8.49-46.91-24.48,46.91h32.98Z"/>
        <path d="M1022.1,268.73h-27.98c-4.48-17.47-25.65-19.09-39.95-13.45-33.39,13.17-39.81,75.31,4.47,72.3,8.58-.58,17.24-4.71,23.53-10.42,1.19-1.08,4.48-6.52,5.46-6.52h24.98c2.54,0,.19,3.63-.34,4.65-9.32,18.06-31.55,32.26-51.75,34.13-82.18,7.6-72.06-102.12-3-117.75,29.28-6.63,59.92,4.85,64.59,37.05Z"/>
        <path d="M651.38,268.73h-27.98c-3.99-14.18-16.26-17-29.52-16.01-23.59,1.76-38.46,26.4-37.47,48.47,1.31,29.11,35.71,33.42,54.49,16.42,1.21-1.09,4.91-6.98,6-6.98h24.98c2.68,0-.13,4.25-.7,5.29-9.82,18.03-31.82,31.92-52.28,33.61-65.75,5.41-73.73-67.74-31.47-103.27,30.69-25.81,86.3-23.39,93.94,22.46Z"/>
        <path d="M818.25,127.04h-24.98c-.4,0-.45-5.73-1.57-7.91-5.58-10.77-34.15-8.9-30.38,10.38,1.68,8.6,30.44,17.89,38.27,23.64,13.84,10.15,18.16,25.71,9.47,41.04-16.51,29.15-85.11,25.79-80.75-16.27h24.98c-1.83,23.06,41.23,19.93,33.43-2.95-2.38-6.99-30.12-16.09-37.73-21.19-13.9-9.31-17.66-25.58-10.07-40.61,15.3-30.27,83.15-27.84,79.33,13.86Z"/>
        <path d="M1334.87,263.74c-.21-.22.08-4.21-.46-6.03-3.66-12.43-34.6-11.8-31.46,7.47,1.67,10.24,30.01,18.44,38.82,25.09,22.08,16.67,15.51,45.9-8.93,55.77-24.29,9.81-67.09,2.07-61.93-31.41h24.98c-3.91,25.02,44.29,17.99,32.18-3.7-4.17-7.46-29.2-14.49-37.5-20.43-24.44-17.47-13.87-49.79,12.36-58.15,19.26-6.14,49.42-2.7,56.22,19.61.6,1.98,3.1,11.78.2,11.78-3.4,0-23.64.89-24.48,0Z"/>
        <polygon points="722.33 94.11 702.34 211.85 678.36 211.85 699.84 94.11 722.33 94.11"/>
      </g>
    </g>
  </g>
</svg>